<?xml version="1.0" encoding="UTF-8" standalone="no"?>
<svg
   xmlns:dc="http://purl.org/dc/elements/1.1/"
   xmlns:cc="http://creativecommons.org/ns#"
   xmlns:rdf="http://www.w3.org/1999/02/22-rdf-syntax-ns#"
   xmlns:svg="http://www.w3.org/2000/svg"
   xmlns="http://www.w3.org/2000/svg"
   xmlns:sodipodi="http://sodipodi.sourceforge.net/DTD/sodipodi-0.dtd"
   xmlns:inkscape="http://www.inkscape.org/namespaces/inkscape"
   viewBox="0 0 16 16"
   version="1.1"
   id="svg14"
   sodipodi:docname="file_active.svg"
   inkscape:version="0.92.2 5c3e80d, 2017-08-06">
  <metadata
     id="metadata20">
    <rdf:RDF>
      <cc:Work
         rdf:about="">
        <dc:format>image/svg+xml</dc:format>
        <dc:type
           rdf:resource="http://purl.org/dc/dcmitype/StillImage" />
        <dc:title />
      </cc:Work>
    </rdf:RDF>
  </metadata>
  <defs
     id="defs18" />
  <sodipodi:namedview
     pagecolor="#ffffff"
     bordercolor="#666666"
     borderopacity="1"
     objecttolerance="10"
     gridtolerance="10"
     guidetolerance="10"
     inkscape:pageopacity="0"
     inkscape:pageshadow="2"
     inkscape:window-width="1366"
     inkscape:window-height="714"
     id="namedview16"
     showgrid="false"
     inkscape:zoom="14.75"
     inkscape:cx="0.13559322"
     inkscape:cy="12.745763"
     inkscape:window-x="0"
     inkscape:window-y="31"
     inkscape:window-maximized="1"
     inkscape:current-layer="svg14" />
  <path
     d="m 2.668 1 c -0.344 0 -0.668 0.339 -0.668 0.697 l 0 12.605 c 0 0.338 0.344 0.697 0.668 0.697 l 10.664 0 c 0.324 0 0.668 -0.359 0.668 -0.697 l 0 -9.303 -4 -4 m -7 1 7 0 0 2.383 c 0 0.299 0.337 0.733 0.613 0.617 l 2.387 0 0 9 -10 0"
     style="fill:#bebebe;fill-opacity:1"
     id="path2" />
  <g
     transform="translate(15.491527,1.084523)"
     style="fill:#bebebe;fill-opacity:1"
     id="g12">
    <path
       d="m -11.492 6.915 0 1 8 0 0 -1 z"
       id="path4" />
    <path
       d="m -11.492 8.915 0 1 8 0 0 -1 z"
       id="path6" />
    <path
       d="m -11.492 10.915 0 1 8 0 0 -1 z"
       id="path8" />
    <path
       d="m -11.492 4.915 0 1 8 0 0 -1 z"
       id="path10" />
  </g>
  <path
     d="M 10.558791,6.6095601 9.1173708,10.000141 5.1168976,10.195158 8.2269387,12.487844 7.1957022,16 8.3065245,15.346446 10.558791,14.02391 13.921195,15.999381 12.889959,12.487225 16,10.194546 11.999527,9.999523 Z"
     style="color:#000000;display:inline;visibility:visible;opacity:1;fill:#ff9900;fill-opacity:1;stroke:none;stroke-width:0.64792198;enable-background:new"
     id="path2-3"
     inkscape:connector-curvature="0" />
</svg>
