<?xml version="1.0" encoding="UTF-8" standalone="no"?>
<svg
   xmlns:dc="http://purl.org/dc/elements/1.1/"
   xmlns:cc="http://creativecommons.org/ns#"
   xmlns:rdf="http://www.w3.org/1999/02/22-rdf-syntax-ns#"
   xmlns:svg="http://www.w3.org/2000/svg"
   xmlns="http://www.w3.org/2000/svg"
   xmlns:sodipodi="http://sodipodi.sourceforge.net/DTD/sodipodi-0.dtd"
   xmlns:inkscape="http://www.inkscape.org/namespaces/inkscape"
   viewBox="0 0 16 16"
   version="1.1"
   id="svg8"
   sodipodi:docname="new.svg"
   inkscape:version="0.92.2 5c3e80d, 2017-08-06">
  <metadata
     id="metadata14">
    <rdf:RDF>
      <cc:Work
         rdf:about="">
        <dc:format>image/svg+xml</dc:format>
        <dc:type
           rdf:resource="http://purl.org/dc/dcmitype/StillImage" />
      </cc:Work>
    </rdf:RDF>
  </metadata>
  <defs
     id="defs12" />
  <sodipodi:namedview
     pagecolor="#ffffff"
     bordercolor="#666666"
     borderopacity="1"
     objecttolerance="10"
     gridtolerance="10"
     guidetolerance="10"
     inkscape:pageopacity="0"
     inkscape:pageshadow="2"
     inkscape:window-width="1366"
     inkscape:window-height="714"
     id="namedview10"
     showgrid="false"
     inkscape:zoom="14.75"
     inkscape:cx="-1.3220339"
     inkscape:cy="8"
     inkscape:window-x="0"
     inkscape:window-y="31"
     inkscape:window-maximized="1"
     inkscape:current-layer="g6" />
  <g
     transform="translate(-373.00061,-168)"
     style="display:inline"
     id="g6">
    <path
       d="m 385 178 0 2 -2 0 0 2 2 0 0 2 2 0 0 -2 2 0 0 -2 -2 0 0 -2 z"
       style="fill:#00cc00;fill-opacity:1;stroke:none"
       id="path2" />
    <path
       d="m 375 170 c -1 0 -1 1 -1 1 l 0 10 c 0 0.524 0.476 1 1 1 l 7 0 0 -1 -7 0 0 -8 12 0 0 4 1 0 0 -6 c 0 -0.524 -0.476 -1 -1 -1 z"
       style="visibility:visible;fill:#404040;fill-opacity:1;stroke:none;color:#000"
       id="path4" />
  </g>
</svg>
