<?xml version="1.0" encoding="UTF-8" standalone="no"?>
<svg
   xmlns:dc="http://purl.org/dc/elements/1.1/"
   xmlns:cc="http://creativecommons.org/ns#"
   xmlns:rdf="http://www.w3.org/1999/02/22-rdf-syntax-ns#"
   xmlns:svg="http://www.w3.org/2000/svg"
   xmlns="http://www.w3.org/2000/svg"
   xmlns:sodipodi="http://sodipodi.sourceforge.net/DTD/sodipodi-0.dtd"
   xmlns:inkscape="http://www.inkscape.org/namespaces/inkscape"
   viewBox="0 0 16 16"
   style="enable-background:new"
   version="1.1"
   id="svg6"
   sodipodi:docname="pin_menu.svg"
   inkscape:version="0.92.2 5c3e80d, 2017-08-06">
  <metadata
     id="metadata12">
    <rdf:RDF>
      <cc:Work
         rdf:about="">
        <dc:format>image/svg+xml</dc:format>
        <dc:type
           rdf:resource="http://purl.org/dc/dcmitype/StillImage" />
      </cc:Work>
    </rdf:RDF>
  </metadata>
  <defs
     id="defs10" />
  <sodipodi:namedview
     pagecolor="#ffffff"
     bordercolor="#666666"
     borderopacity="1"
     objecttolerance="10"
     gridtolerance="10"
     guidetolerance="10"
     inkscape:pageopacity="0"
     inkscape:pageshadow="2"
     inkscape:window-width="1366"
     inkscape:window-height="714"
     id="namedview8"
     showgrid="false"
     inkscape:zoom="14.75"
     inkscape:cx="-10.644068"
     inkscape:cy="4.7457627"
     inkscape:window-x="0"
     inkscape:window-y="31"
     inkscape:window-maximized="1"
     inkscape:current-layer="g4" />
  <g
     transform="matrix(1.4648911,0,0,1.0871655,-473.21703,241.74045)"
     id="g4"
     style="fill:#999999">
    <path
       d="M 8.5,1 C 8.068,1 7.636,1.111 7.25,1.334 6.477,1.78 6,2.608 6,3.5 v 6.697 c 0,0.508 0.34,0.938 0.791,1.146 0.451,0.209 0.967,0.209 1.418,0 C 8.66,11.135 9,10.705 9,10.197 V 5.5 C 9,5.223 8.777,5 8.5,5 8.223,5 8,5.223 8,5.5 v 4.697 c 0,0.064 -0.042,0.161 -0.209,0.238 -0.167,0.077 -0.415,0.077 -0.582,0 C 7.042,10.358 7,10.26 7,10.197 V 3.5 C 7,2.963 7.285,2.47 7.75,2.201 8.215,1.933 8.785,1.933 9.25,2.201 9.715,2.469 10,2.963 10,3.5 v 7.918 c 0,0.929 -0.483,1.781 -1.256,2.24 -0.773,0.459 -1.715,0.459 -2.488,0 C 5.483,13.199 5,12.346 5,11.418 V 4.5 C 5,4.223 4.777,4 4.5,4 4.223,4 4,4.223 4,4.5 v 6.918 c 0,1.275 0.661,2.457 1.744,3.1 1.083,0.643 2.429,0.643 3.512,0 C 10.339,13.875 11,12.693 11,11.418 V 3.5 C 11,2.608 10.523,1.78 9.75,1.334 9.364,1.111 8.932,1 8.5,1"
       transform="translate(321.00021,-223)"
       style="opacity:1;fill:#404040;fill-opacity:1;fill-rule:nonzero;stroke:none"
       id="path2"
       inkscape:connector-curvature="0" />
  </g>
</svg>
