<?xml version="1.0" encoding="UTF-8" standalone="no"?>
<svg
   xmlns:dc="http://purl.org/dc/elements/1.1/"
   xmlns:cc="http://creativecommons.org/ns#"
   xmlns:rdf="http://www.w3.org/1999/02/22-rdf-syntax-ns#"
   xmlns:svg="http://www.w3.org/2000/svg"
   xmlns="http://www.w3.org/2000/svg"
   xmlns:sodipodi="http://sodipodi.sourceforge.net/DTD/sodipodi-0.dtd"
   xmlns:inkscape="http://www.inkscape.org/namespaces/inkscape"
   viewBox="0 0 16 16"
   version="1.1"
   id="svg14"
   sodipodi:docname="file_inactive.svg"
   inkscape:version="0.92.2 5c3e80d, 2017-08-06">
  <metadata
     id="metadata20">
    <rdf:RDF>
      <cc:Work
         rdf:about="">
        <dc:format>image/svg+xml</dc:format>
        <dc:type
           rdf:resource="http://purl.org/dc/dcmitype/StillImage" />
      </cc:Work>
    </rdf:RDF>
  </metadata>
  <defs
     id="defs18" />
  <sodipodi:namedview
     pagecolor="#ffffff"
     bordercolor="#666666"
     borderopacity="1"
     objecttolerance="10"
     gridtolerance="10"
     guidetolerance="10"
     inkscape:pageopacity="0"
     inkscape:pageshadow="2"
     inkscape:window-width="1366"
     inkscape:window-height="714"
     id="namedview16"
     showgrid="false"
     inkscape:zoom="14.75"
     inkscape:cx="-0.54237288"
     inkscape:cy="2.5762712"
     inkscape:window-x="0"
     inkscape:window-y="31"
     inkscape:window-maximized="1"
     inkscape:current-layer="svg14" />
  <path
     d="m 2.668 1 c -0.344 0 -0.668 0.339 -0.668 0.697 l 0 12.605 c 0 0.338 0.344 0.697 0.668 0.697 l 10.664 0 c 0.324 0 0.668 -0.359 0.668 -0.697 l 0 -9.303 -4 -4 m -7 1 7 0 0 2.383 c 0 0.299 0.337 0.733 0.613 0.617 l 2.387 0 0 9 -10 0"
     style="fill:#bebebe;fill-opacity:1"
     id="path2" />
  <path
     inkscape:connector-curvature="0"
     d="m 4.1913171,6.3653382 c -0.2996685,0 -0.5409178,0.1939177 -0.5409178,0.4347933 v 6.0871075 c 0,0.240877 0.2412493,0.434795 0.5409178,0.434795 h 7.5728489 c 0.299669,0 0.540919,-0.193918 0.540919,-0.434795 V 6.8001315 c 0,-0.2408756 -0.24125,-0.4347933 -0.540919,-0.4347933 z M 4.7322349,7.234925 H 11.22325 v 3.478348 L 9.3300357,8.9740992 7.9777421,10.278479 6.3549893,8.5393058 4.7322349,9.8436857 Z"
     style="opacity:1;fill:#808080;fill-opacity:1;stroke:none;stroke-width:0.48496142"
     id="path2-3" />
</svg>
