<?xml version="1.0" encoding="UTF-8" standalone="no"?>
<svg
   xmlns:dc="http://purl.org/dc/elements/1.1/"
   xmlns:cc="http://creativecommons.org/ns#"
   xmlns:rdf="http://www.w3.org/1999/02/22-rdf-syntax-ns#"
   xmlns:svg="http://www.w3.org/2000/svg"
   xmlns="http://www.w3.org/2000/svg"
   xmlns:sodipodi="http://sodipodi.sourceforge.net/DTD/sodipodi-0.dtd"
   xmlns:inkscape="http://www.inkscape.org/namespaces/inkscape"
   viewBox="0 0 16 16"
   version="1.1"
   id="svg8"
   sodipodi:docname="hide.svg"
   inkscape:version="0.92.2 5c3e80d, 2017-08-06">
  <metadata
     id="metadata14">
    <rdf:RDF>
      <cc:Work
         rdf:about="">
        <dc:format>image/svg+xml</dc:format>
        <dc:type
           rdf:resource="http://purl.org/dc/dcmitype/StillImage" />
      </cc:Work>
    </rdf:RDF>
  </metadata>
  <defs
     id="defs12" />
  <sodipodi:namedview
     pagecolor="#ffffff"
     bordercolor="#666666"
     borderopacity="1"
     objecttolerance="10"
     gridtolerance="10"
     guidetolerance="10"
     inkscape:pageopacity="0"
     inkscape:pageshadow="2"
     inkscape:window-width="643"
     inkscape:window-height="480"
     id="namedview10"
     showgrid="false"
     inkscape:zoom="14.75"
     inkscape:cx="-1.3220339"
     inkscape:cy="8"
     inkscape:window-x="0"
     inkscape:window-y="31"
     inkscape:window-maximized="0"
     inkscape:current-layer="svg8" />
  <g
     transform="translate(-219.99995 -606)"
     style="fill:#404040;color:#000"
     id="g6">
    <path
       d="m 228.01 607.02 c -3.86 0 -7.01 3.166 -7.01 7.01 0 3.844 3.147 6.979 7.01 6.979 3.86 0 7.01 -3.134 7.01 -6.979 0 -3.844 -3.147 -7.01 -7.01 -7.01 z m 0 2.02 c 2.777 0 5.01 2.224 5.01 4.989 0 2.766 -2.233 4.958 -5.01 4.958 -2.777 0 -5.01 -2.192 -5.01 -4.958 0 -2.766 2.233 -4.989 5.01 -4.989 z"
       id="path2"
       style="fill:#404040" />
    <path
       d="m 231.41 609.44 -8 8 1.406 1.406 8 -8 -1.406 -1.406 z"
       id="path4"
       style="fill:#404040" />
  </g>
</svg>
