<?xml version="1.0" encoding="UTF-8" standalone="no"?>
<svg
   xmlns:dc="http://purl.org/dc/elements/1.1/"
   xmlns:cc="http://creativecommons.org/ns#"
   xmlns:rdf="http://www.w3.org/1999/02/22-rdf-syntax-ns#"
   xmlns:svg="http://www.w3.org/2000/svg"
   xmlns="http://www.w3.org/2000/svg"
   xmlns:sodipodi="http://sodipodi.sourceforge.net/DTD/sodipodi-0.dtd"
   xmlns:inkscape="http://www.inkscape.org/namespaces/inkscape"
   viewBox="0 0 16 16"
   version="1.1"
   id="svg8"
   sodipodi:docname="lowercase.svg"
   inkscape:version="0.92.2 2405546, 2018-03-11">
  <metadata
     id="metadata14">
    <rdf:RDF>
      <cc:Work
         rdf:about="">
        <dc:format>image/svg+xml</dc:format>
        <dc:type
           rdf:resource="http://purl.org/dc/dcmitype/StillImage" />
      </cc:Work>
    </rdf:RDF>
  </metadata>
  <defs
     id="defs12" />
  <sodipodi:namedview
     pagecolor="#ffffff"
     bordercolor="#666666"
     borderopacity="1"
     objecttolerance="10"
     gridtolerance="10"
     guidetolerance="10"
     inkscape:pageopacity="0"
     inkscape:pageshadow="2"
     inkscape:window-width="705"
     inkscape:window-height="480"
     id="namedview10"
     showgrid="false"
     inkscape:zoom="14.75"
     inkscape:cx="8"
     inkscape:cy="8"
     inkscape:window-x="0"
     inkscape:window-y="31"
     inkscape:window-maximized="0"
     inkscape:current-layer="svg8" />
  <path
     d="m 6 4 0 2 2 0 c 1 0 1 1 1 1 l 0 0 -1 0 c -0.919 0 -1.736 0.384 -2.25 0.969 -0.514 0.585 -0.756 1.311 -0.75 2.031 0.006 0.721 0.269 1.453 0.781 2.031 c 0.512 0.579 1.31 0.969 2.219 0.969 l 2 0 1 0 0 -1 0 -5 c 0 -2 -1 -3 -3 -3 z m 2 5 1 0 0 2 -1 0 c -0.398 0 -0.567 -0.11 -0.719 -0.281 -0.152 -0.171 -0.279 -0.439 -0.281 -0.719 -0.002 -0.279 0.105 -0.554 0.25 -0.719 c 0.145 -0.165 0.328 -0.281 0.75 -0.281"
     style="fill:#404040;color:#000"
     id="path2" />
  <path
     d="m 16 6 0 6 -4 -3 z"
     style="fill:#404040;fill-opacity:1;stroke:none"
     id="path4" />
  <path
     d="m 0 6 0 6 4 -3 z"
     style="fill:#404040;fill-opacity:1;stroke:none"
     id="path6" />
</svg>
