<?xml version="1.0" encoding="UTF-8" standalone="no"?>
<svg
   xmlns:dc="http://purl.org/dc/elements/1.1/"
   xmlns:cc="http://creativecommons.org/ns#"
   xmlns:rdf="http://www.w3.org/1999/02/22-rdf-syntax-ns#"
   xmlns:svg="http://www.w3.org/2000/svg"
   xmlns="http://www.w3.org/2000/svg"
   xmlns:sodipodi="http://sodipodi.sourceforge.net/DTD/sodipodi-0.dtd"
   xmlns:inkscape="http://www.inkscape.org/namespaces/inkscape"
   viewBox="0 0 16 16.003"
   version="1.1"
   id="svg10"
   sodipodi:docname="paste.svg"
   inkscape:version="0.92.2 2405546, 2018-03-11">
  <metadata
     id="metadata16">
    <rdf:RDF>
      <cc:Work
         rdf:about="">
        <dc:format>image/svg+xml</dc:format>
        <dc:type
           rdf:resource="http://purl.org/dc/dcmitype/StillImage" />
      </cc:Work>
    </rdf:RDF>
  </metadata>
  <defs
     id="defs14" />
  <sodipodi:namedview
     pagecolor="#ffffff"
     bordercolor="#666666"
     borderopacity="1"
     objecttolerance="10"
     gridtolerance="10"
     guidetolerance="10"
     inkscape:pageopacity="0"
     inkscape:pageshadow="2"
     inkscape:window-width="705"
     inkscape:window-height="480"
     id="namedview12"
     showgrid="false"
     inkscape:zoom="14.747235"
     inkscape:cx="8"
     inkscape:cy="8.0015001"
     inkscape:window-x="0"
     inkscape:window-y="31"
     inkscape:window-maximized="0"
     inkscape:current-layer="svg10" />
  <path
     d="m 3.308 2 c -1.309 0 -1.308 -0.001 -1.308 1.308 l 0 10.382 c 0 1.309 -0.001 1.31 1.308 1.31 l 9.384 0 c 1.309 0 1.308 -0.001 1.308 -1.31 l 0 -10.382 c 0 -1.439 0.001 -1.308 -1.308 -1.308 l -0.692 0 0 11 -8 0 0 -11 z"
     style="fill:#404040;fill-opacity:1;stroke:none;fill-rule:evenodd"
     id="path2" />
  <path
     d="m 5 1.012 0 2.991 6 0 0 -2.991 z"
     style="fill:#404040;fill-opacity:1;stroke:none;fill-rule:nonzero"
     id="path4" />
  <path
     d="m 5 6 0 1 6 0 0 -1 z"
     style="fill:#404040;fill-opacity:1;stroke:none;fill-rule:nonzero"
     id="path6" />
  <path
     d="m 5 9 0 1 l 6 0 0 -1 z"
     style="fill:#404040;fill-opacity:1;stroke:none;fill-rule:nonzero"
     id="path8" />
</svg>
