<?xml version="1.0" encoding="UTF-8" standalone="no"?>
<svg
   xmlns:dc="http://purl.org/dc/elements/1.1/"
   xmlns:cc="http://creativecommons.org/ns#"
   xmlns:rdf="http://www.w3.org/1999/02/22-rdf-syntax-ns#"
   xmlns:svg="http://www.w3.org/2000/svg"
   xmlns="http://www.w3.org/2000/svg"
   xmlns:sodipodi="http://sodipodi.sourceforge.net/DTD/sodipodi-0.dtd"
   xmlns:inkscape="http://www.inkscape.org/namespaces/inkscape"
   viewBox="0 0 16 16"
   version="1.1"
   id="svg10"
   sodipodi:docname="preferences.svg"
   inkscape:version="0.92.2 5c3e80d, 2017-08-06">
  <metadata
     id="metadata16">
    <rdf:RDF>
      <cc:Work
         rdf:about="">
        <dc:format>image/svg+xml</dc:format>
        <dc:type
           rdf:resource="http://purl.org/dc/dcmitype/StillImage" />
      </cc:Work>
    </rdf:RDF>
  </metadata>
  <defs
     id="defs14" />
  <sodipodi:namedview
     pagecolor="#ffffff"
     bordercolor="#666666"
     borderopacity="1"
     objecttolerance="10"
     gridtolerance="10"
     guidetolerance="10"
     inkscape:pageopacity="0"
     inkscape:pageshadow="2"
     inkscape:window-width="643"
     inkscape:window-height="480"
     id="namedview12"
     showgrid="false"
     inkscape:zoom="14.75"
     inkscape:cx="-1.3220339"
     inkscape:cy="8"
     inkscape:window-x="0"
     inkscape:window-y="31"
     inkscape:window-maximized="0"
     inkscape:current-layer="svg10" />
  <g
     style="fill:#404040;display:block"
     id="g8">
    <path
       d="m 11.438 0 c -0.133 0 -0.25 0.117 -0.25 0.25 l 0 0.625 c -0.296 0.076 -0.556 0.223 -0.813 0.375 l -0.469 -0.5 c -0.094 -0.094 -0.25 -0.094 -0.344 0 l -0.813 0.813 c -0.094 0.094 -0.094 0.25 0 0.344 l 0.5 0.469 c -0.152 0.257 -0.299 0.516 -0.375 0.813 l -0.625 0 c -0.133 0 -0.25 0.117 -0.25 0.25 l 0 1.125 c 0 0.133 0.117 0.25 0.25 0.25 l 0.625 0 c 0.076 0.296 0.223 0.556 0.375 0.813 l -0.5 0.469 c -0.094 0.094 -0.094 0.25 0 0.344 l 0.813 0.813 c 0.094 0.094 0.25 0.094 0.344 0 l 0.469 -0.5 c 0.257 0.152 0.516 0.299 0.813 0.375 l 0 0.625 c 0 0.133 0.117 0.25 0.25 0.25 l 1.125 0 c 0.133 0 0.25 -0.117 0.25 -0.25 l 0 -0.625 c 0.296 -0.076 0.556 -0.223 0.813 -0.375 l 0.469 0.5 c 0.094 0.094 0.25 0.094 0.344 0 l 0.813 -0.813 c 0.094 -0.094 0.094 -0.25 0 -0.344 l -0.5 -0.469 c 0.152 -0.257 0.299 -0.516 0.375 -0.813 l 0.625 0 c 0.133 0 0.25 -0.117 0.25 -0.25 l 0 -1.125 c 0 -0.133 -0.117 -0.25 -0.25 -0.25 l -0.625 0 c -0.076 -0.296 -0.223 -0.556 -0.375 -0.813 l 0.5 -0.469 c 0.094 -0.094 0.094 -0.25 0 -0.344 l -0.813 -0.813 c -0.094 -0.094 -0.25 -0.094 -0.344 0 l -0.469 0.5 c -0.257 -0.152 -0.516 -0.299 -0.813 -0.375 l 0 -0.625 c 0 -0.133 -0.117 -0.25 -0.25 -0.25 l -1.125 0 z m 0.563 3 c 0.552 0 1 0.448 1 1 0 0.552 -0.448 1 -1 1 -0.552 0 -1 -0.448 -1 -1 0 -0.552 0.448 -1 1 -1 z"
       id="path2"
       style="fill:#404040" />
    <path
       d="m 3.438 4 c -0.133 0 -0.25 0.117 -0.25 0.25 l 0 0.625 c -0.296 0.076 -0.556 0.223 -0.813 0.375 l -0.469 -0.5 c -0.094 -0.094 -0.25 -0.094 -0.344 0 l -0.813 0.813 c -0.094 0.094 -0.094 0.25 0 0.344 l 0.5 0.469 c -0.152 0.257 -0.299 0.516 -0.375 0.813 l -0.625 0 c -0.133 0 -0.25 0.117 -0.25 0.25 l 0 1.125 c 0 0.133 0.117 0.25 0.25 0.25 l 0.625 0 c 0.076 0.296 0.223 0.556 0.375 0.813 l -0.5 0.469 c -0.094 0.094 -0.094 0.25 0 0.344 l 0.813 0.813 c 0.094 0.094 0.25 0.094 0.344 0 l 0.469 -0.5 c 0.257 0.152 0.516 0.299 0.813 0.375 l 0 0.625 c 0 0.133 0.117 0.25 0.25 0.25 l 1.125 0 c 0.133 0 0.25 -0.117 0.25 -0.25 l 0 -0.625 c 0.296 -0.076 0.556 -0.223 0.813 -0.375 l 0.469 0.5 c 0.094 0.094 0.25 0.094 0.344 0 l 0.813 -0.813 c 0.094 -0.094 0.094 -0.25 0 -0.344 l -0.5 -0.469 c 0.152 -0.257 0.299 -0.516 0.375 -0.813 l 0.625 0 c 0.133 0 0.25 -0.117 0.25 -0.25 l 0 -1.125 c 0 -0.133 -0.117 -0.25 -0.25 -0.25 l -0.625 0 c -0.076 -0.296 -0.223 -0.556 -0.375 -0.813 l 0.5 -0.469 c 0.094 -0.094 0.094 -0.25 0 -0.344 l -0.813 -0.813 c -0.094 -0.094 -0.25 -0.094 -0.344 0 l -0.469 0.5 c -0.257 -0.152 -0.516 -0.299 -0.813 -0.375 l 0 -0.625 c 0 -0.133 -0.117 -0.25 -0.25 -0.25 l -1.125 0 z m 0.563 3 c 0.552 0 1 0.448 1 1 0 0.552 -0.448 1 -1 1 -0.552 0 -1 -0.448 -1 -1 0 -0.552 0.448 -1 1 -1 z"
       id="path4"
       style="fill:#404040" />
    <path
       d="m 9.85 6.01 c -0.037 -0.002 -0.055 0.015 -0.094 0.031 l -1.344 0.531 c -0.155 0.064 -0.221 0.282 -0.156 0.438 l 0.281 0.781 c -0.309 0.232 -0.524 0.479 -0.75 0.781 l -0.781 -0.344 c -0.155 -0.064 -0.373 0.032 -0.438 0.188 l -0.531 1.281 c -0.064 0.155 0.032 0.342 0.188 0.406 l 0.781 0.344 c -0.053 0.374 -0.054 0.742 0 1.125 l -0.781 0.344 c -0.155 0.064 -0.221 0.188 -0.156 0.344 l 0.5 1.344 c 0.064 0.155 0.282 0.221 0.438 0.156 l 0.781 -0.313 c 0.232 0.309 0.511 0.555 0.813 0.781 l -0.344 0.781 c -0.064 0.155 0.001 0.373 0.156 0.438 l 1.344 0.531 c 0.155 0.064 0.279 -0.032 0.344 -0.188 l 0.344 -0.781 c 0.374 0.053 0.742 0.055 1.125 0 l 0.313 0.781 c 0.064 0.155 0.282 0.221 0.438 0.156 l 1.281 -0.5 c 0.155 -0.064 0.252 -0.282 0.188 -0.438 l -0.344 -0.781 c 0.309 -0.232 0.555 -0.479 0.781 -0.781 l 0.813 0.313 c 0.155 0.064 0.311 -0.001 0.375 -0.156 l 0.563 -1.344 c 0.064 -0.155 -0.001 -0.279 -0.156 -0.344 l -0.813 -0.344 c 0.053 -0.374 0.054 -0.742 0 -1.125 l 0.781 -0.344 c 0.155 -0.064 0.252 -0.188 0.188 -0.344 l -0.563 -1.344 c -0.064 -0.155 -0.251 -0.252 -0.406 -0.188 l -0.781 0.344 c -0.232 -0.309 -0.479 -0.555 -0.781 -0.781 l 0.344 -0.844 c 0.064 -0.155 -0.032 -0.311 -0.188 -0.375 l -1.281 -0.531 c -0.155 -0.064 -0.373 0.032 -0.438 0.188 l -0.313 0.781 c -0.374 -0.053 -0.742 -0.055 -1.125 0 l -0.344 -0.781 c -0.048 -0.116 -0.139 -0.212 -0.25 -0.219 z m 1.156 3 c 1.105 0 2 0.895 2 2 0 1.105 -0.895 2 -2 2 -1.105 0 -2 -0.895 -2 -2 0 -1.105 0.895 -2 2 -2 z"
       id="path6"
       style="fill:#404040" />
  </g>
</svg>
