<?xml version="1.0" encoding="UTF-8" standalone="no"?>
<svg
   xmlns:dc="http://purl.org/dc/elements/1.1/"
   xmlns:cc="http://creativecommons.org/ns#"
   xmlns:rdf="http://www.w3.org/1999/02/22-rdf-syntax-ns#"
   xmlns:svg="http://www.w3.org/2000/svg"
   xmlns="http://www.w3.org/2000/svg"
   xmlns:sodipodi="http://sodipodi.sourceforge.net/DTD/sodipodi-0.dtd"
   xmlns:inkscape="http://www.inkscape.org/namespaces/inkscape"
   style="enable-background:new"
   viewBox="0 0 16 16"
   version="1.1"
   id="svg4"
   sodipodi:docname="search.svg"
   inkscape:version="0.92.2 2405546, 2018-03-11">
  <metadata
     id="metadata10">
    <rdf:RDF>
      <cc:Work
         rdf:about="">
        <dc:format>image/svg+xml</dc:format>
        <dc:type
           rdf:resource="http://purl.org/dc/dcmitype/StillImage" />
      </cc:Work>
    </rdf:RDF>
  </metadata>
  <defs
     id="defs8" />
  <sodipodi:namedview
     pagecolor="#ffffff"
     bordercolor="#666666"
     borderopacity="1"
     objecttolerance="10"
     gridtolerance="10"
     guidetolerance="10"
     inkscape:pageopacity="0"
     inkscape:pageshadow="2"
     inkscape:window-width="705"
     inkscape:window-height="480"
     id="namedview6"
     showgrid="false"
     inkscape:zoom="14.75"
     inkscape:cx="8"
     inkscape:cy="8"
     inkscape:window-x="0"
     inkscape:window-y="31"
     inkscape:window-maximized="0"
     inkscape:current-layer="svg4" />
  <path
     style="fill:#404040;opacity:1;fill-opacity:1;stroke:none;fill-rule:nonzero"
     d="m 6.5 1 c -3.03 0 -5.5 2.474 -5.5 5.5 0 3.03 2.474 5.5 5.5 5.5 1.153 0 2.225 -0.362 3.111 -0.975 l 3.951 3.951 c 0.197 0.197 0.478 0.235 0.629 0.084 l 0.869 -0.869 c 0.151 -0.151 0.115 -0.432 -0.082 -0.629 l -3.953 -3.951 c 0.612 -0.886 0.975 -1.958 0.975 -3.111 0 -3.03 -2.474 -5.5 -5.5 -5.5 z m 0 2 c 1.945 0 3.5 1.555 3.5 3.5 0 1.945 -1.555 3.5 -3.5 3.5 -1.945 0 -3.5 -1.555 -3.5 -3.5 0 -1.945 1.555 -3.5 3.5 -3.5 z"
     id="path2" />
</svg>
