<?xml version="1.0" encoding="UTF-8" standalone="no"?>
<svg
   xmlns:dc="http://purl.org/dc/elements/1.1/"
   xmlns:cc="http://creativecommons.org/ns#"
   xmlns:rdf="http://www.w3.org/1999/02/22-rdf-syntax-ns#"
   xmlns:svg="http://www.w3.org/2000/svg"
   xmlns="http://www.w3.org/2000/svg"
   xmlns:sodipodi="http://sodipodi.sourceforge.net/DTD/sodipodi-0.dtd"
   xmlns:inkscape="http://www.inkscape.org/namespaces/inkscape"
   viewBox="0 0 16 16"
   version="1.1"
   id="svg6"
   sodipodi:docname="sort.svg"
   inkscape:version="0.92.2 2405546, 2018-03-11">
  <metadata
     id="metadata12">
    <rdf:RDF>
      <cc:Work
         rdf:about="">
        <dc:format>image/svg+xml</dc:format>
        <dc:type
           rdf:resource="http://purl.org/dc/dcmitype/StillImage" />
      </cc:Work>
    </rdf:RDF>
  </metadata>
  <defs
     id="defs10" />
  <sodipodi:namedview
     pagecolor="#ffffff"
     bordercolor="#666666"
     borderopacity="1"
     objecttolerance="10"
     gridtolerance="10"
     guidetolerance="10"
     inkscape:pageopacity="0"
     inkscape:pageshadow="2"
     inkscape:window-width="705"
     inkscape:window-height="480"
     id="namedview8"
     showgrid="false"
     inkscape:zoom="14.75"
     inkscape:cx="8"
     inkscape:cy="8"
     inkscape:window-x="0"
     inkscape:window-y="31"
     inkscape:window-maximized="0"
     inkscape:current-layer="svg6" />
  <path
     d="m 1 2.995 0 2 c 1.069 0.012 1.933 -0.044 3 0 1.442 0 1.486 0 2 1 l 1 4 c 1 3 1 3 2.188 3 l 3.375 0 c -0.376 0.321 -0.725 0.795 -0.529 1.315 0.208 0.755 1.298 0.943 1.765 0.325 c 0.871 -0.878 1.354 -1.738 2.202 -2.639 -0.898 -0.95 -1.429 -1.864 -2.354 -2.787 c -0.608 -0.562 -1.734 -0.058 -1.686 0.78 -0.02 0.435 0.32 0.731 0.603 1.01 -1.256 -0.012 -0.308 0.044 -1.562 0 -1.53 0 -1.542 0 -2 -1 l -1 -4 c -1 -3 -1 -3 -3 -3 z"
     style="fill:#404040;fill-opacity:1;color:#bebebe"
     id="path2" />
  <path
     d="m 13.09 0.998 c -0.452 -0.03 -0.926 0.22 -1.057 0.691 c -0.196 0.52 0.154 0.993 0.529 1.314 l -3.375 0 c -0.778 0 -1.048 0.018 -1.422 0.861 0.218 0.482 0.416 1.098 0.709 1.977 l 0.006 0.018 0.277 1.111 0.242 -0.967 c 0.458 -1 0.47 -1 2 -1 1.254 -0.044 0.306 0.012 1.563 0 -0.283 0.276 -0.623 0.573 -0.604 1.01 -0.048 0.838 1.08 1.341 1.688 0.779 c 0.926 -0.923 1.455 -1.837 2.354 -2.787 -0.848 -0.901 -1.33 -1.76 -2.201 -2.639 -0.175 -0.232 -0.438 -0.349 -0.709 -0.367 m -6.848 8.04 -0.242 0.971 c -0.514 1 -0.558 1 -2 1 -1.067 0.044 -1.931 -0.012 -3 0 l 0 2 4 0 c 1.32 0 1.769 -0.02 2.209 -0.883 c -0.19 -0.468 -0.387 -1.074 -0.684 -1.963 l -0.006 -0.018 z"
     style="fill:#404040;fill-opacity:1;color:#bebebe"
     id="path4" />
</svg>
