<?xml version="1.0" encoding="UTF-8" standalone="no"?>
<svg
   xmlns:dc="http://purl.org/dc/elements/1.1/"
   xmlns:cc="http://creativecommons.org/ns#"
   xmlns:rdf="http://www.w3.org/1999/02/22-rdf-syntax-ns#"
   xmlns:svg="http://www.w3.org/2000/svg"
   xmlns="http://www.w3.org/2000/svg"
   xmlns:sodipodi="http://sodipodi.sourceforge.net/DTD/sodipodi-0.dtd"
   xmlns:inkscape="http://www.inkscape.org/namespaces/inkscape"
   viewBox="0 0 16 16"
   version="1.1"
   id="svg8"
   sodipodi:docname="undo.svg"
   inkscape:version="0.92.2 2405546, 2018-03-11">
  <metadata
     id="metadata14">
    <rdf:RDF>
      <cc:Work
         rdf:about="">
        <dc:format>image/svg+xml</dc:format>
        <dc:type
           rdf:resource="http://purl.org/dc/dcmitype/StillImage" />
      </cc:Work>
    </rdf:RDF>
  </metadata>
  <defs
     id="defs12" />
  <sodipodi:namedview
     pagecolor="#ffffff"
     bordercolor="#666666"
     borderopacity="1"
     objecttolerance="10"
     gridtolerance="10"
     guidetolerance="10"
     inkscape:pageopacity="0"
     inkscape:pageshadow="2"
     inkscape:window-width="705"
     inkscape:window-height="480"
     id="namedview10"
     showgrid="false"
     inkscape:zoom="14.75"
     inkscape:cx="8"
     inkscape:cy="8"
     inkscape:window-x="0"
     inkscape:window-y="31"
     inkscape:window-maximized="0"
     inkscape:current-layer="svg8" />
  <g
     transform="translate(-121.00015 -667)"
     style="fill:#404040"
     id="g6">
    <path
       d="m 125 673 0 2 6.5 0 c 0.84 0 1.5 0.66 1.5 1.5 0 0.84 -0.66 1.5 -1.5 1.5 l -0.5 0 0 2 0.5 0 c 1.921 0 3.5 -1.579 3.5 -3.5 0 -1.921 -1.579 -3.5 -3.5 -3.5 l -6.5 0 z"
       style="color:#000;fill:#404040"
       id="path2" />
    <path
       d="m 128 670.02 0 1 c 0 0.257 -0.13 0.528 -0.313 0.719 l -2.281 2.281 2.281 2.281 c 0.183 0.19 0.313 0.462 0.313 0.719 l 0 1 -1 0 c -0.309 0 -0.552 -0.09 -0.75 -0.281 l -3.656 -3.719 3.656 -3.719 c 0.198 -0.191 0.441 -0.281 0.75 -0.281 z"
       style="color:#bebebe;fill:#404040"
       id="path4" />
  </g>
</svg>
